<svg width="40" height="40" viewBox="0 0 40 40" fill="none" xmlns="http://www.w3.org/2000/svg">
<g id="call">
<mask id="mask0_2_1890" style="mask-type:alpha" maskUnits="userSpaceOnUse" x="0" y="0" width="40" height="40">
<rect id="Bounding box" width="40" height="40" fill="#D9D9D9"/>
</mask>
<g mask="url(#mask0_2_1890)">
<path id="call_2" d="M33.25 35C29.6667 35 26.1736 34.2014 22.7708 32.6042C19.3681 31.0069 16.3542 28.8958 13.7292 26.2708C11.1042 23.6458 8.99306 20.6319 7.39583 17.2292C5.79861 13.8264 5 10.3333 5 6.75C5 6.25 5.16667 5.83333 5.5 5.5C5.83333 5.16667 6.25 5 6.75 5H13.5C13.8889 5 14.2361 5.125 14.5417 5.375C14.8472 5.625 15.0278 5.94444 15.0833 6.33333L16.1667 12.1667C16.2222 12.5556 16.2153 12.9097 16.1458 13.2292C16.0764 13.5486 15.9167 13.8333 15.6667 14.0833L11.6667 18.1667C12.8333 20.1667 14.2917 22.0417 16.0417 23.7917C17.7917 25.5417 19.7222 27.0556 21.8333 28.3333L25.75 24.4167C26 24.1667 26.3264 23.9792 26.7292 23.8542C27.1319 23.7292 27.5278 23.6944 27.9167 23.75L33.6667 24.9167C34.0556 25 34.375 25.1875 34.625 25.4792C34.875 25.7708 35 26.1111 35 26.5V33.25C35 33.75 34.8333 34.1667 34.5 34.5C34.1667 34.8333 33.75 35 33.25 35Z" fill="url(#paint0_linear_2_1890)"/>
</g>
</g>
<defs>
<linearGradient id="paint0_linear_2_1890" x1="3.5" y1="3.5" x2="34.5" y2="35.5" gradientUnits="userSpaceOnUse">
<stop stop-color="#858585"/>
<stop offset="0.536458" stop-color="#CCCBCB"/>
<stop offset="0.942708" stop-color="#828282"/>
</linearGradient>
</defs>
</svg>
