<svg width="32" height="24" viewBox="0 0 32 24" fill="none" xmlns="http://www.w3.org/2000/svg">
<g id="Group">
<path id="Vector" d="M31.3409 4.30556C30.9719 2.93489 29.8911 1.85417 28.5205 1.48514C26.0164 0.799805 15.9999 0.799805 15.9999 0.799805C15.9999 0.799805 5.9835 0.799805 3.47939 1.45878C2.13508 1.82781 1.028 2.93489 0.658976 4.30556C0 6.80966 0 12.0024 0 12.0024C0 12.0024 0 17.2215 0.658976 19.6992C1.028 21.0699 2.10872 22.1506 3.47939 22.5196C6.00986 23.205 15.9999 23.205 15.9999 23.205C15.9999 23.205 26.0164 23.205 28.5205 22.546C29.8911 22.177 30.9719 21.0963 31.3409 19.7256C31.9999 17.2215 31.9999 12.0288 31.9999 12.0288C31.9999 12.0288 32.0262 6.80966 31.3409 4.30556Z" fill="url(#paint0_linear_1444_25)"/>
<path id="Vector_2" d="M12.8105 16.7998L21.14 12.0024L12.8105 7.20508V16.7998Z" fill="#484848"/>
</g>
<defs>
<linearGradient id="paint0_linear_1444_25" x1="16" y1="0.799805" x2="16" y2="23.205" gradientUnits="userSpaceOnUse">
<stop stop-color="#868686"/>
<stop offset="0.567708" stop-color="#CDCBCB"/>
<stop offset="0.984375" stop-color="#868686"/>
</linearGradient>
</defs>
</svg>
