<svg width="40" height="40" viewBox="0 0 40 40" fill="none" xmlns="http://www.w3.org/2000/svg">
<g id="location_on">
<mask id="mask0_2_1885" style="mask-type:alpha" maskUnits="userSpaceOnUse" x="0" y="0" width="40" height="40">
<rect id="Bounding box" width="40" height="40" fill="#D9D9D9"/>
</mask>
<g mask="url(#mask0_2_1885)">
<path id="location_on_2" d="M20 19.9997C20.9167 19.9997 21.7014 19.6733 22.3542 19.0205C23.007 18.3677 23.3333 17.583 23.3333 16.6663C23.3333 15.7497 23.007 14.965 22.3542 14.3122C21.7014 13.6594 20.9167 13.333 20 13.333C19.0833 13.333 18.2986 13.6594 17.6458 14.3122C16.9931 14.965 16.6667 15.7497 16.6667 16.6663C16.6667 17.583 16.9931 18.3677 17.6458 19.0205C18.2986 19.6733 19.0833 19.9997 20 19.9997ZM20 36.6663C15.5278 32.8608 12.1875 29.3261 9.97917 26.0622C7.77084 22.7983 6.66667 19.7775 6.66667 16.9997C6.66667 12.833 8.00695 9.51356 10.6875 7.04134C13.3681 4.56912 16.4722 3.33301 20 3.33301C23.5278 3.33301 26.632 4.56912 29.3125 7.04134C31.9931 9.51356 33.3333 12.833 33.3333 16.9997C33.3333 19.7775 32.2292 22.7983 30.0208 26.0622C27.8125 29.3261 24.4722 32.8608 20 36.6663Z" fill="url(#paint0_linear_2_1885)"/>
</g>
</g>
<defs>
<linearGradient id="paint0_linear_2_1885" x1="9.5" y1="6" x2="23.5" y2="37" gradientUnits="userSpaceOnUse">
<stop stop-color="#838383"/>
<stop offset="0.380208" stop-color="#CBC9C9"/>
<stop offset="1" stop-color="#838383"/>
</linearGradient>
</defs>
</svg>
