<svg width="40" height="40" viewBox="0 0 40 40" fill="none" xmlns="http://www.w3.org/2000/svg">
<g id="mail">
<mask id="mask0_2_1895" style="mask-type:alpha" maskUnits="userSpaceOnUse" x="0" y="0" width="40" height="40">
<rect id="Bounding box" width="40" height="40" fill="#D9D9D9"/>
</mask>
<g mask="url(#mask0_2_1895)">
<path id="mail_2" d="M6.66666 33.3337C5.74999 33.3337 4.96527 33.0073 4.31249 32.3545C3.65972 31.7017 3.33333 30.917 3.33333 30.0003V10.0003C3.33333 9.08366 3.65972 8.29894 4.31249 7.64616C4.96527 6.99338 5.74999 6.66699 6.66666 6.66699H33.3333C34.25 6.66699 35.0347 6.99338 35.6875 7.64616C36.3403 8.29894 36.6667 9.08366 36.6667 10.0003V30.0003C36.6667 30.917 36.3403 31.7017 35.6875 32.3545C35.0347 33.0073 34.25 33.3337 33.3333 33.3337H6.66666ZM20 21.667L33.3333 13.3337V10.0003L20 18.3337L6.66666 10.0003V13.3337L20 21.667Z" fill="url(#paint0_linear_2_1895)"/>
</g>
</g>
<defs>
<linearGradient id="paint0_linear_2_1895" x1="14.5" y1="3.5" x2="27.5" y2="37" gradientUnits="userSpaceOnUse">
<stop stop-color="#838383"/>
<stop offset="0.541667" stop-color="#CBC9C9"/>
<stop offset="1" stop-color="#838383"/>
</linearGradient>
</defs>
</svg>
