<svg width="32" height="32" viewBox="0 0 32 32" fill="none" xmlns="http://www.w3.org/2000/svg">
<g id="Telegram">
<path id="Vector" fill-rule="evenodd" clip-rule="evenodd" d="M2.71606 15.0578C10.9847 11.4552 16.4984 9.08025 19.2572 7.93277C27.1342 4.65648 28.771 4.08735 29.8378 4.06856C30.0724 4.06443 30.597 4.12258 30.9369 4.39833C31.2238 4.63117 31.3028 4.9457 31.3406 5.16646C31.3783 5.38721 31.4254 5.8901 31.388 6.28305C30.9611 10.768 29.1141 21.6519 28.1745 26.6752C27.7769 28.8007 26.994 29.5134 26.2361 29.5832C24.5889 29.7347 23.3382 28.4946 21.7428 27.4489C19.2464 25.8124 17.8361 24.7938 15.413 23.1969C12.6126 21.3515 14.4279 20.3372 16.0239 18.6796C16.4416 18.2458 23.6989 11.6447 23.8394 11.0459C23.8569 10.971 23.8732 10.6918 23.7074 10.5444C23.5415 10.397 23.2968 10.4474 23.1201 10.4875C22.8698 10.5443 18.8817 13.1803 11.1561 18.3953C10.0241 19.1726 8.99878 19.5513 8.08013 19.5315C7.06739 19.5096 5.11929 18.9589 3.67108 18.4881C1.89479 17.9107 0.483033 17.6054 0.605965 16.6248C0.669996 16.1141 1.37336 15.5917 2.71606 15.0578Z" fill="url(#paint0_linear_23_2758)"/>
</g>
<defs>
<linearGradient id="paint0_linear_23_2758" x1="16.0001" y1="4.06836" x2="16.0001" y2="29.5958" gradientUnits="userSpaceOnUse">
<stop stop-color="#888888"/>
<stop offset="0.401042" stop-color="#CDCBCB"/>
<stop offset="1" stop-color="#888888"/>
</linearGradient>
</defs>
</svg>
